<?xml version="1.0" encoding="UTF-8"?>
<svg id="Layer_1" data-name="Layer 1" xmlns="http://www.w3.org/2000/svg" viewBox="0 0 32 32">
  <defs>
    <style>
      .cls-1 {
        fill: #ff3000;
        stroke-width: 0px;
      }
    </style>
  </defs>
  <path class="cls-1" d="m11.45,5.18c0,2.9-2.36,5.26-5.26,5.26-.51,0-1-.07-1.47-.21-.4.78-.72,1.61-.96,2.47.77.25,1.58.38,2.43.38,4.36,0,7.9-3.55,7.9-7.9,0-.58-.06-1.14-.18-1.68-.89.15-1.74.39-2.56.71.06.31.09.64.09.97Z"/>
  <path class="cls-1" d="m28.24,12.7c-.23-.87-.56-1.69-.96-2.47-.47.14-.96.21-1.47.21-2.9,0-5.26-2.36-5.26-5.26,0-.33.03-.66.09-.97-.81-.32-1.67-.56-2.56-.71-.12.54-.18,1.1-.18,1.68,0,4.36,3.55,7.9,7.9,7.9.85,0,1.66-.14,2.43-.38Z"/>
  <path class="cls-1" d="m17.91,26.82c0,.58.06,1.14.18,1.68.89-.15,1.74-.39,2.56-.71-.06-.31-.09-.64-.09-.97,0-2.9,2.36-5.26,5.26-5.26.51,0,1,.07,1.47.21.4-.78.72-1.61.96-2.47-.77-.25-1.58-.38-2.43-.38-4.36,0-7.9,3.55-7.9,7.9Z"/>
  <path class="cls-1" d="m6.19,18.92c-.85,0-1.66.14-2.43.38.23.87.56,1.69.96,2.47.47-.14.96-.21,1.47-.21,2.9,0,5.26,2.36,5.26,5.26,0,.33-.03.66-.09.97.81.32,1.67.56,2.56.71.12-.54.18-1.1.18-1.68,0-4.36-3.55-7.9-7.9-7.9Z"/>
  <g>
    <path class="cls-1" d="m12.66,12.4c-1.05.84-1.73,2.14-1.73,3.6s.67,2.75,1.72,3.59l2.78-3.6-2.78-3.59Z"/>
    <path class="cls-1" d="m16.45,11.39c-1.09,0-2.09.38-2.87,1.01l3.6,3.6-3.6,3.6c.79.63,1.79,1.01,2.88,1.01,2.55,0,4.61-2.06,4.61-4.61s-2.06-4.61-4.61-4.61Zm-1.33,8.27l2.83-3.66-2.82-3.65,3.65,3.65-3.66,3.66Zm1.83,0l2.83-3.66-2.82-3.65,3.65,3.65-3.66,3.66Z"/>
  </g>
</svg>