<?xml version="1.0" encoding="UTF-8"?>
<svg id="Layer_1" data-name="Layer 1" xmlns="http://www.w3.org/2000/svg" viewBox="0 0 32 32">
  <defs>
    <style>
      .cls-1 {
        fill: #ff3000;
        stroke-width: 0px;
      }
    </style>
  </defs>
  <path class="cls-1" d="m10.38,2.63c0,3.58-2.91,6.49-6.49,6.49-.63,0-1.24-.09-1.82-.26-.5.97-.89,1.99-1.18,3.06.95.31,1.95.47,3,.47,5.38,0,9.76-4.38,9.76-9.76,0-.71-.08-1.4-.22-2.07-1.1.18-2.15.48-3.16.87.07.39.11.79.11,1.2Z"/>
  <path class="cls-1" d="m31.12,11.92c-.29-1.07-.69-2.09-1.18-3.06-.58.17-1.19.26-1.82.26-3.58,0-6.49-2.91-6.49-6.49,0-.41.04-.81.11-1.2-1.01-.4-2.06-.69-3.16-.87-.15.67-.22,1.36-.22,2.07,0,5.38,4.38,9.76,9.76,9.76,1.05,0,2.05-.17,3-.47Z"/>
  <path class="cls-1" d="m18.35,29.37c0,.71.08,1.4.22,2.07,1.1-.18,2.15-.48,3.16-.87-.07-.39-.11-.79-.11-1.2,0-3.58,2.91-6.49,6.49-6.49.63,0,1.24.09,1.82.26.5-.97.89-1.99,1.18-3.06-.95-.31-1.95-.47-3-.47-5.38,0-9.76,4.38-9.76,9.76Z"/>
  <path class="cls-1" d="m3.88,19.61c-1.05,0-2.05.17-3,.47.29,1.07.69,2.09,1.18,3.06.58-.17,1.19-.26,1.82-.26,3.58,0,6.49,2.91,6.49,6.49,0,.41-.04.81-.11,1.2,1.01.4,2.06.69,3.16.87.15-.67.22-1.36.22-2.07,0-5.38-4.38-9.76-9.76-9.76Z"/>
  <g>
    <path class="cls-1" d="m11.88,11.56c-1.3,1.04-2.13,2.65-2.13,4.44s.83,3.39,2.13,4.44l3.43-4.44-3.43-4.44Z"/>
    <path class="cls-1" d="m16.56,10.31c-1.34,0-2.58.47-3.55,1.24l4.45,4.45-4.45,4.45c.97.78,2.21,1.25,3.55,1.25,3.15,0,5.7-2.55,5.7-5.69s-2.55-5.7-5.7-5.7Zm-1.65,10.21l3.5-4.52-3.49-4.51,4.51,4.51-4.52,4.52Zm2.26,0l3.5-4.52-3.49-4.51,4.51,4.51-4.52,4.52Z"/>
  </g>
</svg>